<svg xmlns="http://www.w3.org/2000/svg" width="40" height="40" viewBox="0 0 64 64" aria-hidden="true" role="img">
  <title>TravelBloom logo</title>
  <path fill="#FFFFFF" d="M32 2C15.4 2 2 15.4 2 32s13.4 30 30 30 30-13.4 30-30S48.6 2 32 2zm0 4c14.3 0 26 11.7 26 26s-11.7 26-26 26S6 46.3 6 32 17.7 6 32 6z"/>
  <path fill="#FFFFFF" d="M32 12c-3.3 0-6 2.7-6 6v8c0 3.3 2.7 6 6 6s6-2.7 6-6v-8c0-3.3-2.7-6-6-6zm0 4c1.1 0 2 .9 2 2v8c0 1.1-.9 2-2 2s-2-.9-2-2v-8c0-1.1.9-2 2-2z"/>
  <path fill="#FFFFFF" d="M20 28l-8 8 8 8M44 28l8 8-8 8"/>
</svg>
